<?xml version="1.0" standalone="no"?>
<!DOCTYPE svg PUBLIC "-//W3C//DTD SVG 20010904//EN"
 "http://www.w3.org/TR/2001/REC-SVG-20010904/DTD/svg10.dtd">
<svg version="1.0" xmlns="http://www.w3.org/2000/svg"
 width="770.000000pt" height="434.000000pt" viewBox="0 0 770.000000 434.000000"
 preserveAspectRatio="xMidYMid meet">
<metadata>
Created by potrace 1.12, written by Peter Selinger 2001-2015
</metadata>
<g transform="translate(0.000000,434.000000) scale(0.100000,-0.100000)"
fill="#000000" stroke="none">
<path d="M425 4056 c-43 -19 -66 -49 -72 -94 -7 -50 19 -108 58 -127 43 -23
129 -18 129 7 0 6 -15 7 -38 3 -51 -8 -88 7 -108 46 -20 40 -13 93 18 126 19
20 31 24 70 22 56 -3 72 6 34 21 -35 13 -54 12 -91 -4z"/>
<path d="M2516 4062 c-3 -5 15 -62 40 -126 33 -83 50 -116 61 -114 8 2 33 52
59 118 24 63 44 116 44 118 0 1 -6 2 -13 2 -7 0 -28 -41 -47 -95 -19 -52 -40
-95 -45 -95 -6 0 -26 43 -44 95 -33 94 -44 114 -55 97z"/>
<path d="M1252 4049 c2 -6 8 -10 13 -10 5 0 11 4 13 10 2 6 -4 11 -13 11 -9 0
-15 -5 -13 -11z"/>
<path d="M2758 3948 c-9 -62 -14 -116 -11 -121 11 -19 22 10 33 88 7 47 16 82
21 79 5 -3 21 -28 35 -56 25 -49 26 -50 40 -29 8 11 21 36 30 56 8 19 18 35
23 35 4 0 13 -38 18 -85 11 -85 17 -105 30 -92 10 11 -21 230 -33 234 -7 2
-26 -21 -44 -52 -17 -30 -35 -55 -39 -55 -4 0 -19 25 -34 55 -41 83 -52 74
-69 -57z"/>
<path d="M970 4011 c0 -11 -6 -22 -12 -25 -10 -5 -10 -7 0 -12 7 -3 12 -26 13
-52 2 -74 11 -97 42 -100 31 -4 37 13 7 21 -17 4 -20 14 -20 66 0 54 2 61 19
61 11 0 23 5 26 10 4 6 -5 10 -19 10 -19 0 -26 5 -26 20 0 11 -7 20 -15 20 -8
0 -15 -9 -15 -19z"/>
<path d="M590 3970 c-27 -27 -35 -65 -20 -101 15 -34 37 -49 75 -49 38 0 60
15 75 49 24 60 -14 121 -75 121 -22 0 -43 -8 -55 -20z m92 -17 c22 -20 23 -70
1 -95 -35 -39 -93 -9 -93 48 0 57 52 84 92 47z"/>
<path d="M770 3903 c0 -49 4 -83 10 -83 6 0 10 26 10 59 0 66 15 91 54 91 34
0 44 -19 48 -85 2 -35 8 -60 16 -63 17 -5 16 104 -1 138 -11 23 -19 25 -75 25
l-62 1 0 -83z"/>
<path d="M1093 3983 c-26 -10 -12 -22 20 -16 23 3 37 0 46 -11 16 -19 6 -36
-22 -36 -37 0 -69 -28 -65 -57 4 -37 30 -50 69 -36 23 9 35 9 49 0 11 -6 23
-8 27 -4 4 5 3 11 -3 15 -6 4 -15 34 -19 67 -4 33 -12 66 -17 73 -10 12 -61
15 -85 5z m77 -96 c0 -29 -18 -47 -47 -47 -34 0 -41 29 -14 52 33 26 61 24 61
-5z"/>
<path d="M1250 3904 c0 -64 3 -85 13 -82 8 3 13 32 15 86 2 68 0 82 -13 82
-12 0 -15 -15 -15 -86z"/>
<path d="M1330 3903 c0 -49 4 -83 10 -83 6 0 10 28 10 63 0 69 10 87 51 87 37
0 47 -17 51 -83 4 -77 23 -68 23 11 0 79 -15 93 -92 90 l-53 -2 0 -83z"/>
<path d="M1548 3980 c-24 -15 -41 -72 -29 -103 18 -48 90 -74 131 -47 17 11
10 13 -37 10 -34 -2 -73 28 -73 55 0 12 13 15 59 15 33 0 63 5 67 11 3 6 -2
23 -13 37 -22 29 -74 40 -105 22z m80 -22 c21 -21 13 -28 -33 -28 -25 0 -45 4
-45 8 0 15 24 32 45 32 12 0 26 -5 33 -12z"/>
<path d="M1702 3908 c2 -54 7 -83 16 -86 9 -3 12 14 12 62 0 64 1 66 33 82 18
10 26 19 19 22 -7 2 -19 -2 -28 -9 -11 -9 -18 -9 -26 -1 -24 24 -29 10 -26
-70z"/>
<path d="M1826 3974 c-29 -29 -14 -56 47 -82 52 -22 19 -62 -40 -47 -18 4 -24
2 -21 -7 3 -7 23 -14 46 -16 34 -3 43 1 57 21 21 33 11 52 -36 71 -53 21 -51
50 4 54 20 2 35 7 32 13 -10 15 -72 10 -89 -7z"/>
<path d="M2045 3969 c54 -169 75 -181 116 -69 33 88 33 90 16 90 -7 0 -22 -28
-33 -62 -11 -35 -24 -63 -28 -63 -5 0 -18 27 -30 59 -11 33 -27 61 -35 64 -10
3 -11 -2 -6 -19z"/>
<path d="M2230 3970 c-17 -32 -3 -56 41 -73 30 -12 40 -21 37 -34 -3 -14 -13
-18 -46 -17 -55 1 -50 -20 5 -24 33 -2 44 1 57 19 20 29 6 56 -40 75 -45 19
-43 48 4 52 46 5 40 22 -8 22 -29 0 -42 -5 -50 -20z"/>
<path d="M3034 3965 c-20 -30 -9 -49 43 -70 24 -10 33 -20 31 -32 -3 -14 -13
-18 -46 -16 -42 2 -56 -9 -26 -21 29 -11 72 -6 88 10 30 30 17 56 -38 79 -50
21 -46 49 7 53 46 4 39 22 -8 22 -26 0 -39 -6 -51 -25z"/>
<path d="M2376 3841 c-4 -5 -2 -12 3 -15 5 -4 12 -2 15 3 4 5 2 12 -3 15 -5 4
-12 2 -15 -3z"/>
<path d="M2533 2573 c1 -450 4 -981 6 -1180 l4 -363 263 0 264 0 0 358 c0 197
3 362 6 365 4 4 9 373 12 822 l4 815 -281 0 -281 0 3 -817z m522 507 l0 -284
-25 -7 c-23 -6 -22 -7 8 -8 l32 -1 0 -220 0 -220 -260 0 -260 0 0 220 0 220
228 2 227 2 -225 6 -225 5 -3 275 c-1 151 0 280 3 288 3 10 58 12 252 10 l248
-3 0 -285z m-348 -1257 c3 -7 -9 -13 -29 -15 -25 -2 -34 -8 -36 -26 -3 -22 22
-42 36 -27 4 4 1 10 -5 12 -22 8 -14 25 10 21 16 -2 22 -10 22 -27 0 -33 -26
-48 -59 -33 -57 26 -36 116 26 110 17 -2 33 -8 35 -15z m280 -35 c-9 -14 -9
-23 0 -38 8 -13 9 -21 2 -25 -15 -10 -39 15 -39 41 0 18 -5 24 -22 24 -21 -1
-22 -2 -5 -14 9 -7 17 -20 17 -29 0 -17 -34 -32 -50 -22 -16 10 -12 25 6 25
14 0 14 3 4 15 -8 10 -17 12 -24 6 -6 -5 -20 -11 -31 -14 -18 -4 -17 -5 3 -6
14 -1 22 -6 20 -13 -8 -23 -41 -21 -59 3 -15 19 -19 21 -19 7 0 -22 -37 -33
-55 -18 -19 16 -20 84 -2 77 6 -2 12 -13 12 -25 0 -12 5 -22 10 -22 6 0 10 10
10 22 0 12 6 23 13 25 6 3 12 -3 12 -13 0 -16 1 -16 18 -1 21 19 48 22 57 7 4
-7 14 -5 26 4 11 7 28 12 39 9 10 -3 21 0 24 6 5 7 12 7 25 -1 15 -9 17 -15 8
-30z m-187 -153 c12 -14 15 -14 31 1 19 18 50 16 57 -3 2 -8 -5 -13 -19 -13
-22 0 -22 0 4 -24 17 -15 24 -31 21 -41 -7 -17 -47 -30 -63 -20 -20 12 -11 25
17 25 l27 0 -25 20 c-23 18 -25 18 -29 2 -10 -50 -68 -69 -95 -30 -21 30 -20
54 4 78 24 24 53 26 70 5z"/>
<path d="M2747 1614 c-12 -12 -8 -41 7 -53 17 -14 39 9 34 36 -3 18 -29 29
-41 17z"/>
<path d="M880 2732 c0 -357 3 -886 7 -1175 l6 -527 262 0 262 0 6 533 c4 292
7 821 7 1175 l0 642 -275 0 -275 0 0 -648z m524 118 c4 -275 5 -504 1 -510 -4
-6 -95 -10 -256 -10 l-249 0 0 228 0 227 222 0 223 -1 -220 6 -220 5 -3 278
-2 277 248 0 249 0 7 -500z m-356 -1017 c2 -9 -7 -13 -26 -13 -31 0 -46 -19
-36 -45 4 -8 16 -15 28 -15 20 1 20 2 4 14 -24 18 -22 28 5 24 17 -2 22 -10
22 -33 0 -24 -5 -31 -23 -33 -51 -8 -81 60 -45 100 19 21 64 21 71 1z m278 -8
c12 -12 12 -18 2 -36 -10 -17 -10 -23 0 -26 19 -7 15 -35 -5 -31 -26 5 -43
108 -18 108 4 0 13 -7 21 -15z m-236 -35 c0 -16 5 -30 10 -30 6 0 10 14 10 30
0 35 19 40 28 8 l5 -22 8 22 c9 24 38 29 57 10 20 -20 13 -38 -15 -39 -24 -2
-25 -2 -5 -6 12 -2 22 -11 22 -19 0 -21 -38 -17 -52 6 -16 25 -26 26 -24 3 1
-14 -7 -18 -29 -18 -23 0 -32 6 -39 26 -10 29 -3 59 14 59 5 0 10 -13 10 -30z
m190 20 c0 -5 -5 -10 -10 -10 -6 0 -6 -7 1 -19 7 -10 9 -26 6 -35 -8 -20 -47
-21 -47 -1 0 8 5 15 11 15 8 0 8 5 -1 15 -7 8 -10 22 -6 30 6 17 46 21 46 5z
m-136 -166 c33 -32 13 -104 -29 -104 -49 0 -73 63 -38 102 20 22 46 23 67 2z
m84 -1 c2 -8 -5 -13 -19 -13 -21 0 -21 -1 5 -25 22 -21 25 -28 16 -45 -13 -24
-60 -28 -60 -4 0 11 6 14 20 9 11 -4 20 -2 20 4 0 6 -9 15 -20 21 -23 12 -26
40 -8 58 15 15 40 12 46 -5z"/>
<path d="M1358 2783 c6 -2 18 -2 25 0 6 3 1 5 -13 5 -14 0 -19 -2 -12 -5z"/>
<path d="M1142 2625 c0 -16 2 -22 5 -12 2 9 2 23 0 30 -3 6 -5 -1 -5 -18z"/>
<path d="M1165 2450 c-3 -5 -1 -10 4 -10 6 0 11 5 11 10 0 6 -2 10 -4 10 -3 0
-8 -4 -11 -10z"/>
<path d="M1097 1623 c-9 -8 -9 -48 -1 -56 14 -13 34 7 34 34 0 27 -17 39 -33
22z"/>
<path d="M1720 2565 c0 -716 2 -816 15 -821 13 -5 15 -55 15 -360 l0 -354 260
0 260 0 0 1175 0 1175 -275 0 -275 0 0 -815z m530 280 l0 -505 -255 0 -255 0
0 225 0 225 238 2 237 3 -232 2 -233 3 0 275 0 275 250 0 250 0 0 -505z m-356
-1011 c26 -10 18 -24 -13 -24 -21 0 -32 -6 -36 -21 -7 -22 18 -59 32 -46 3 4
1 13 -5 19 -19 19 -14 30 11 26 17 -2 22 -10 22 -33 0 -26 -4 -30 -32 -33 -23
-2 -35 3 -47 20 -21 30 -20 47 6 75 22 24 35 27 62 17z m304 -30 c2 -1 -2 -11
-10 -23 -10 -16 -10 -23 0 -33 17 -17 15 -28 -7 -28 -14 0 -20 10 -24 41 -7
55 0 74 22 57 9 -7 17 -13 19 -14z m-248 -35 c0 -18 4 -28 10 -24 6 3 10 19
10 36 0 34 16 39 26 7 l7 -23 8 23 c9 24 38 29 57 10 20 -20 14 -36 -15 -41
-27 -4 -27 -4 -5 -12 29 -10 28 -25 -2 -25 -13 0 -31 10 -40 23 -15 20 -16 21
-14 2 2 -15 -4 -21 -26 -23 -16 -2 -32 2 -37 10 -10 15 -12 62 -3 71 13 12 24
-4 24 -34z m184 32 c4 -5 0 -11 -6 -14 -10 -3 -10 -7 1 -20 7 -9 11 -24 7 -32
-7 -20 -46 -20 -46 1 0 8 5 12 10 9 6 -3 10 -1 10 4 0 6 -4 11 -10 11 -11 0
-14 33 -3 43 9 10 31 9 37 -2z m-134 -171 c11 -11 20 -31 20 -45 0 -23 -31
-65 -48 -65 -4 0 -18 7 -30 16 -30 21 -30 77 0 98 29 20 34 20 58 -4z m74 14
c24 -9 20 -33 -4 -27 -26 7 -26 -14 -1 -22 28 -9 33 -31 11 -57 -15 -19 -22
-21 -37 -12 -21 13 -15 30 10 27 23 -4 22 9 -3 25 -22 14 -26 42 -8 60 14 14
12 14 32 6z"/>
<path d="M1992 2635 c0 -16 2 -22 5 -12 2 9 2 23 0 30 -3 6 -5 -1 -5 -18z"/>
<path d="M1951 1601 c-14 -25 -3 -53 18 -49 10 2 16 13 16 32 0 35 -20 45 -34
17z"/>
<path d="M6157 3003 c-11 -10 -8 -141 3 -148 6 -4 10 23 10 74 0 81 -1 87 -13
74z"/>
<path d="M6598 2983 c-2 -23 -7 -27 -26 -25 -33 5 -52 -15 -52 -53 0 -40 17
-55 58 -52 l32 2 0 78 c0 77 -6 102 -12 50z m-10 -45 c17 -17 15 -53 -3 -68
-31 -26 -60 13 -44 58 9 24 29 28 47 10z"/>
<path d="M4356 2978 c-38 -54 -9 -128 50 -128 19 0 34 5 34 11 0 6 -8 8 -20 4
-37 -12 -60 11 -60 60 0 48 23 72 61 62 10 -3 19 -1 19 4 0 5 -15 9 -34 9 -25
0 -39 -7 -50 -22z"/>
<path d="M4732 2970 c-6 -10 -7 -21 -2 -26 5 -5 10 -27 12 -49 2 -31 7 -40 23
-43 18 -2 18 -2 3 8 -21 13 -25 75 -5 87 11 6 10 11 -3 24 -16 15 -18 15 -28
-1z"/>
<path d="M6328 2968 c-3 -7 -2 -35 1 -63 5 -40 10 -50 26 -53 16 -2 17 -1 6 7
-16 11 -17 84 -1 89 6 2 4 10 -4 18 -18 17 -23 18 -28 2z"/>
<path d="M4486 2944 c-19 -18 -21 -65 -4 -82 7 -7 24 -12 38 -12 34 0 50 17
50 55 0 17 -5 36 -12 43 -17 17 -54 15 -72 -4z m65 -15 c16 -31 -4 -71 -34
-67 -39 5 -37 88 2 88 11 0 25 -10 32 -21z"/>
<path d="M4611 2900 l2 -55 6 43 c8 48 23 67 45 59 11 -5 16 -20 16 -52 0 -25
5 -45 10 -45 15 0 12 86 -3 99 -7 6 -28 9 -45 8 -32 -2 -32 -2 -31 -57z"/>
<path d="M4840 2951 c34 -9 40 -41 7 -41 -34 0 -54 -25 -37 -45 7 -8 20 -15
28 -15 13 0 13 2 -3 13 -21 16 -12 37 16 37 15 0 19 -6 17 -20 -2 -10 2 -20 7
-22 14 -4 18 57 5 82 -7 13 -20 20 -38 19 l-27 -1 25 -7z"/>
<path d="M4930 2905 c0 -32 3 -55 6 -52 4 4 7 27 7 52 0 25 -3 48 -7 52 -3 3
-6 -20 -6 -52z"/>
<path d="M5008 2953 c-16 -4 -31 -78 -19 -98 3 -5 8 10 11 34 9 82 60 81 60
-2 0 -21 4 -36 8 -33 4 3 6 26 3 53 -6 49 -18 59 -63 46z"/>
<path d="M5122 2948 c-7 -7 -12 -26 -12 -43 0 -40 16 -55 55 -54 27 2 27 2 5
6 -56 11 -67 43 -15 43 39 0 55 21 35 45 -15 18 -51 20 -68 3z m57 -11 c6 -8
8 -17 4 -20 -12 -12 -53 -7 -53 6 0 28 30 37 49 14z"/>
<path d="M5241 2900 l2 -55 7 44 c4 24 14 50 24 56 15 12 14 13 -8 11 -25 -1
-26 -4 -25 -56z"/>
<path d="M5319 2944 c-12 -14 -10 -19 14 -38 33 -26 34 -43 5 -49 -20 -4 -19
-4 5 -6 40 -2 47 27 14 53 -33 26 -34 43 -4 49 21 4 21 4 1 6 -12 0 -28 -6
-35 -15z"/>
<path d="M5490 2950 c0 -5 7 -7 15 -4 17 7 48 -14 40 -26 -2 -4 -18 -10 -36
-14 -25 -5 -30 -10 -27 -28 2 -19 9 -23 41 -23 36 -1 37 0 37 36 0 55 -8 69
-41 69 -16 0 -29 -4 -29 -10z m53 -65 c-1 -5 -8 -14 -17 -20 -18 -11 -42 7
-31 25 8 13 51 9 48 -5z"/>
<path d="M5600 2903 c0 -29 5 -53 10 -53 6 0 10 18 10 39 0 30 6 44 22 55 21
15 21 15 -10 13 -32 -2 -32 -3 -32 -54z"/>
<path d="M5692 2948 c-7 -7 -12 -26 -12 -43 0 -40 16 -55 55 -54 27 2 27 2 5
6 -56 11 -67 43 -15 43 39 0 55 21 35 45 -15 18 -51 20 -68 3z m56 -21 c3 -12
-3 -17 -22 -17 -25 0 -35 18 -19 34 12 12 38 2 41 -17z"/>
<path d="M5873 2905 c0 -33 2 -45 4 -27 2 18 2 45 0 60 -2 15 -4 0 -4 -33z"/>
<path d="M5927 2953 c-15 -14 -6 -40 19 -52 30 -13 27 -33 -7 -42 l-24 -7 26
-1 c15 -1 32 6 39 14 10 12 6 20 -21 44 l-33 30 25 10 c22 9 22 10 3 10 -11 1
-24 -2 -27 -6z"/>
<path d="M6023 2934 c-15 -24 -15 -29 -2 -53 18 -32 54 -39 80 -15 37 34 14
94 -36 94 -15 0 -31 -10 -42 -26z m65 4 c30 -30 -2 -93 -36 -71 -21 13 -27 50
-12 69 15 17 32 18 48 2z"/>
<path d="M6216 2952 c-2 -4 7 -8 22 -7 17 0 28 -6 30 -17 3 -13 -3 -18 -21
-18 -14 0 -30 -7 -37 -15 -19 -23 5 -47 44 -42 28 3 31 7 34 41 2 20 -2 44 -9
52 -12 15 -55 19 -63 6z m54 -67 c0 -9 -7 -18 -16 -22 -18 -7 -39 11 -30 26
11 17 46 13 46 -4z"/>
<path d="M6412 2948 c-7 -7 -12 -26 -12 -43 0 -40 16 -55 55 -54 27 2 27 2 5
6 -55 10 -67 43 -16 43 41 0 51 12 36 40 -12 22 -49 27 -68 8z m56 -21 c3 -12
-3 -17 -21 -17 -31 0 -40 10 -25 27 15 18 42 12 46 -10z"/>
<path d="M6652 2845 c-6 -14 -7 -25 -2 -25 9 0 25 39 18 46 -3 2 -10 -7 -16
-21z"/>
<path d="M4350 2705 c-5 -9 -5 -33 -1 -125 1 -23 5 -26 38 -25 32 0 39 4 47
27 7 19 6 35 -3 54 -10 22 -16 25 -41 21 -27 -6 -29 -4 -32 26 -2 18 -5 28 -8
22z m68 -98 c2 -27 -1 -39 -13 -43 -35 -14 -61 46 -33 74 23 23 43 9 46 -31z"/>
<path d="M4841 2635 c0 -41 4 -77 9 -80 6 -4 10 10 10 33 0 80 55 78 63 -1 3
-31 4 -27 3 13 l-1 55 -32 -1 c-30 -2 -33 1 -33 27 0 16 -4 29 -9 29 -5 0 -10
-34 -10 -75z"/>
<path d="M6010 2681 c0 -24 -3 -28 -24 -24 -18 4 -29 -2 -42 -22 -16 -25 -16
-30 -3 -54 8 -14 24 -27 34 -29 18 -3 18 -2 -2 13 -40 28 -21 95 22 79 13 -5
16 -16 13 -45 -2 -27 0 -39 9 -39 9 0 13 21 13 75 0 43 -4 75 -10 75 -5 0 -10
-13 -10 -29z"/>
<path d="M6373 2630 c0 -47 2 -66 4 -43 8 79 63 87 63 8 0 -25 5 -45 10 -45
16 0 12 86 -4 100 -8 6 -25 10 -38 8 -18 -2 -24 3 -29 27 -4 17 -6 -6 -6 -55z"/>
<path d="M5383 2692 c-43 -28 -33 -127 14 -138 45 -12 77 7 88 50 13 54 -8 90
-55 94 -19 1 -40 -1 -47 -6z m77 -21 c24 -46 0 -111 -41 -111 -21 0 -49 36
-49 65 0 54 67 88 90 46z"/>
<path d="M5527 2693 c-19 -18 -5 -52 28 -72 19 -11 35 -24 35 -29 0 -17 -30
-34 -50 -29 -11 3 -20 1 -20 -4 0 -13 54 -11 68 3 21 21 13 45 -23 72 -39 30
-38 61 1 53 13 -2 24 0 24 4 0 10 -54 12 -63 2z"/>
<path d="M4602 2674 c-6 -12 -7 -26 -2 -35 5 -7 7 -22 4 -31 -7 -24 13 -58 34
-58 16 1 16 1 0 11 -21 12 -26 89 -5 89 8 0 9 3 1 8 -6 4 -13 14 -16 22 -4 12
-7 11 -16 -6z"/>
<path d="M4470 2616 c0 -51 14 -66 58 -63 32 2 32 3 32 55 0 29 -4 51 -8 48
-5 -3 -7 -18 -5 -33 5 -35 -18 -69 -41 -60 -11 5 -16 19 -16 52 0 25 -4 45
-10 45 -5 0 -10 -20 -10 -44z"/>
<path d="M4743 2643 c-4 -11 3 -24 23 -39 30 -24 27 -38 -11 -47 -16 -4 -14
-5 6 -6 15 0 33 6 40 15 12 14 10 19 -14 38 -33 26 -34 43 -4 49 19 4 18 4 -6
6 -17 1 -30 -5 -34 -16z"/>
<path d="M5000 2651 c17 -5 25 -14 25 -28 0 -12 4 -25 8 -29 4 -4 2 -13 -4
-21 -9 -10 -8 -13 5 -13 12 0 16 10 16 38 0 45 -14 62 -49 61 l-26 -1 25 -7z"/>
<path d="M5108 2653 c-14 -3 -18 -15 -18 -54 0 -27 5 -49 10 -49 6 0 10 18 10
39 0 30 6 44 22 55 22 16 13 19 -24 9z"/>
<path d="M5182 2648 c-7 -7 -12 -26 -12 -43 0 -40 16 -55 55 -54 29 2 29 2 3
6 -30 5 -57 31 -42 41 5 4 9 16 9 27 0 13 7 20 20 20 14 0 20 -6 19 -22 -1
-26 14 -31 22 -8 14 35 -46 61 -74 33z"/>
<path d="M5720 2651 c17 -5 25 -14 25 -28 0 -12 4 -25 8 -29 9 -9 -12 -34 -29
-34 -20 0 -27 19 -12 37 11 14 11 15 -2 11 -8 -2 -15 -16 -15 -29 0 -21 5 -24
35 -24 31 0 35 3 38 29 7 55 -5 76 -41 75 -30 -1 -30 -2 -7 -8z"/>
<path d="M5810 2602 c0 -33 4 -51 10 -47 6 3 10 21 10 39 0 75 56 68 63 -7 l4
-42 1 47 c2 53 -7 63 -55 63 l-33 0 0 -53z"/>
<path d="M6243 2624 c-10 -46 -24 -48 -35 -6 -5 17 -12 32 -17 32 -4 0 -1 -22
8 -50 8 -27 19 -50 23 -50 4 0 15 17 24 38 l16 37 12 -32 c17 -47 24 -50 40
-12 23 58 29 82 17 75 -5 -4 -13 -22 -17 -41 -8 -46 -20 -44 -35 5 -15 49 -25
51 -36 4z"/>
<path d="M6502 2648 c-7 -7 -12 -26 -12 -43 0 -39 16 -55 55 -54 l30 1 -30 7
c-26 5 -30 11 -33 44 -4 41 17 59 43 37 12 -10 13 -16 4 -26 -9 -11 -9 -14 0
-14 18 0 25 29 11 45 -15 18 -51 20 -68 3z"/>
<path d="M6621 2600 l2 -55 7 44 c4 24 14 50 24 56 15 12 14 13 -8 11 -25 -1
-26 -4 -25 -56z"/>
<path d="M6706 2638 c-32 -46 -8 -89 47 -87 28 2 29 2 7 6 -43 8 -70 43 -33
43 16 0 16 1 0 13 -21 15 -7 41 19 35 12 -2 19 -12 18 -26 -1 -23 10 -29 21
-12 3 5 1 19 -5 30 -14 27 -55 26 -74 -2z"/>
<path d="M4974 2595 c-9 -22 3 -45 23 -45 15 0 15 1 -2 14 -16 12 -17 16 -6
30 9 11 10 16 2 16 -6 0 -14 -7 -17 -15z"/>
<path d="M6067 2543 c-5 -26 -4 -26 9 -8 16 22 18 35 5 35 -5 0 -11 -12 -14
-27z"/>
<path d="M6112 2399 c-40 -105 -62 -173 -58 -177 3 -3 9 6 14 19 40 105 62
173 58 177 -3 3 -9 -6 -14 -19z"/>
<path d="M5652 2336 c2 -73 2 -74 30 -80 15 -3 35 -3 43 0 21 9 30 51 16 81
-10 21 -16 24 -41 19 -28 -5 -30 -3 -30 24 0 17 -4 30 -10 30 -6 0 -9 -30 -8
-74z m76 -22 c4 -38 -20 -63 -43 -44 -18 15 -20 51 -3 68 21 21 43 9 46 -24z"/>
<path d="M5780 2400 c0 -5 5 -10 11 -10 5 0 7 5 4 10 -3 6 -8 10 -11 10 -2 0
-4 -4 -4 -10z"/>
<path d="M6163 2335 c0 -44 2 -61 4 -37 2 23 2 59 0 80 -2 20 -4 1 -4 -43z"/>
<path d="M6215 2400 c-3 -5 -1 -10 4 -10 6 0 11 5 11 10 0 6 -2 10 -4 10 -3 0
-8 -4 -11 -10z"/>
<path d="M6270 2333 l0 -78 34 -2 c43 -3 58 15 54 64 -3 36 -5 38 -38 39 -32
0 -35 3 -32 27 1 15 -2 27 -8 27 -6 0 -10 -31 -10 -77z m68 5 c16 -16 15 -53
-2 -67 -31 -26 -67 20 -46 59 12 23 30 26 48 8z"/>
<path d="M5319 2373 c-4 -76 9 -123 34 -123 7 0 7 4 -1 12 -16 16 -15 85 1 91
10 4 10 6 0 6 -7 1 -13 8 -13 16 0 21 -20 19 -21 -2z"/>
<path d="M4350 2352 c0 -5 11 -7 24 -5 28 6 43 -12 26 -31 -8 -11 -8 -15 2
-19 10 -3 9 -9 -3 -22 -12 -12 -22 -15 -34 -8 -16 9 -16 11 1 27 17 17 17 18
-2 14 -13 -2 -19 -12 -19 -28 0 -22 4 -25 38 -25 l38 -1 -3 51 c-3 48 -4 50
-35 53 -18 2 -33 -1 -33 -6z"/>
<path d="M4464 2351 c-9 -9 -3 -141 6 -141 6 0 10 11 10 25 0 22 3 25 24 19
15 -3 29 1 40 11 19 20 21 68 3 84 -12 10 -73 11 -83 2z m74 -37 c4 -38 -20
-63 -43 -44 -18 15 -20 51 -3 68 21 21 43 9 46 -24z"/>
<path d="M4590 2284 c0 -43 4 -74 10 -74 6 0 10 11 10 25 0 22 3 25 24 19 34
-8 62 33 49 73 -8 24 -15 28 -51 29 l-42 2 0 -74z m74 50 c17 -44 -10 -88 -39
-64 -18 15 -20 66 -2 73 23 10 35 7 41 -9z"/>
<path d="M4720 2308 c0 -27 4 -48 9 -48 4 0 7 12 5 28 -4 31 3 44 31 60 18 10
16 11 -12 9 -32 -2 -33 -3 -33 -49z"/>
<path d="M4803 2334 c-15 -24 -15 -29 -2 -53 34 -60 120 -10 91 53 -16 36 -65
36 -89 0z m61 10 c24 -9 21 -61 -5 -74 -38 -21 -69 36 -37 68 14 14 20 14 42
6z"/>
<path d="M4936 2350 c-8 -15 -3 -140 4 -140 6 0 10 11 10 25 0 22 3 25 24 19
43 -10 70 40 46 87 -8 14 -20 18 -46 16 -20 -1 -37 -4 -38 -7z m72 -36 c4 -38
-20 -63 -43 -44 -18 15 -20 51 -3 68 21 21 43 9 46 -24z"/>
<path d="M5060 2308 c0 -26 5 -48 10 -48 6 0 10 15 10 34 0 24 7 39 21 50 21
14 21 15 -10 14 -30 -1 -31 -2 -31 -50z"/>
<path d="M5153 2305 c0 -33 2 -45 4 -27 2 18 2 45 0 60 -2 15 -4 0 -4 -33z"/>
<path d="M5210 2352 c0 -5 10 -8 23 -8 16 1 22 -5 22 -21 0 -12 4 -25 8 -29 9
-9 -12 -34 -29 -34 -23 0 -28 23 -8 37 19 14 19 15 -1 11 -22 -4 -32 -35 -17
-50 6 -6 24 -7 42 -3 30 7 31 8 28 53 -3 45 -4 47 -35 50 -18 2 -33 -1 -33 -6z"/>
<path d="M5402 2348 c-7 -7 -12 -26 -12 -43 0 -17 5 -36 12 -43 15 -15 65 -16
74 0 5 8 2 9 -11 4 -34 -13 -55 3 -55 40 0 22 6 37 15 40 18 7 47 -14 39 -27
-3 -5 0 -9 5 -9 12 0 14 11 5 34 -7 19 -55 21 -72 4z"/>
<path d="M5780 2310 c0 -27 5 -50 10 -50 6 0 10 23 10 50 0 28 -4 50 -10 50
-5 0 -10 -22 -10 -50z"/>
<path d="M5842 2300 c1 -49 2 -50 5 -13 7 75 63 88 63 13 0 -22 5 -40 10 -40
15 0 12 76 -3 89 -7 6 -28 9 -45 8 l-32 -2 2 -55z"/>
<path d="M5963 2343 c-4 -11 3 -24 22 -38 30 -25 26 -50 -7 -39 -14 4 -18 2
-14 -5 10 -16 42 -13 57 5 12 14 9 20 -20 45 -24 20 -30 30 -20 33 8 2 21 7
29 9 8 3 2 6 -13 6 -17 1 -30 -5 -34 -16z"/>
<path d="M6210 2311 c0 -28 5 -53 10 -56 6 -4 10 15 10 49 0 31 -4 56 -10 56
-5 0 -10 -22 -10 -49z"/>
<path d="M6402 2300 c1 -50 2 -51 5 -13 3 28 11 47 24 57 20 14 20 14 -5 12
-25 -1 -26 -3 -24 -56z"/>
<path d="M6480 2352 c0 -4 12 -8 27 -7 24 0 27 -4 29 -37 2 -26 -2 -38 -13
-42 -24 -10 -39 10 -23 29 7 8 8 15 2 15 -5 0 -15 -7 -22 -16 -21 -24 7 -46
48 -38 29 6 32 10 32 43 0 20 -5 42 -12 49 -13 13 -68 17 -68 4z"/>
<path d="M6602 2300 c1 -50 2 -51 5 -13 3 28 11 47 24 57 20 14 20 14 -5 12
-25 -1 -26 -3 -24 -56z"/>
<path d="M6680 2310 c0 -27 5 -50 10 -50 6 0 10 23 10 50 0 28 -4 50 -10 50
-5 0 -10 -22 -10 -50z"/>
<path d="M6740 2341 c-14 -28 -12 -57 6 -75 18 -19 60 -21 70 -4 5 8 2 9 -11
4 -35 -13 -54 2 -51 42 2 32 5 37 26 37 18 0 25 -5 24 -17 -1 -10 4 -18 12
-18 17 0 17 5 4 31 -7 12 -21 19 -40 19 -19 0 -33 -7 -40 -19z"/>
<path d="M6861 2346 c-9 -11 -5 -19 20 -39 33 -26 32 -53 -2 -44 -11 3 -19 1
-19 -5 0 -5 12 -8 27 -6 39 4 42 35 6 64 -21 17 -24 24 -13 27 8 3 22 8 30 10
8 3 3 6 -11 6 -15 1 -32 -5 -38 -13z"/>
<path d="M360 2261 c0 -6 5 -13 10 -16 6 -3 10 1 10 9 0 9 -4 16 -10 16 -5 0
-10 -4 -10 -9z"/>
<path d="M440 2260 c0 -5 5 -10 10 -10 6 0 10 5 10 10 0 6 -4 10 -10 10 -5 0
-10 -4 -10 -10z"/>
<path d="M5520 2261 c0 -5 -3 -18 -6 -28 -5 -16 -4 -16 10 1 18 23 20 36 6 36
-5 0 -10 -4 -10 -9z"/>
<path d="M291 2201 c-8 -6 -9 -11 -3 -15 6 -3 14 -1 17 5 9 14 2 20 -14 10z"/>
<path d="M400 2196 c0 -9 5 -16 10 -16 6 0 10 4 10 9 0 6 -4 13 -10 16 -5 3
-10 -1 -10 -9z"/>
<path d="M4440 1513 l0 -358 285 3 285 3 0 355 0 355 -137 -3 -138 -3 -5 -350
-5 -350 -5 350 -5 350 -137 3 -138 3 0 -358z m250 2 l0 -326 -112 3 -113 3 -3
323 -2 322 115 0 115 0 0 -325z m298 3 l-3 -323 -112 -1 -113 0 0 323 0 323
115 0 115 0 -2 -322z"/>
<path d="M5046 1862 c-3 -5 -5 -165 -4 -355 l1 -347 143 0 143 0 -2 353 -2
352 -137 3 c-75 1 -139 -1 -142 -6z m252 -344 l-3 -323 -110 0 -110 0 -3 323
-2 322 115 0 115 0 -2 -322z"/>
<path d="M5368 1515 l-3 -355 143 0 142 0 -2 353 -3 352 -137 3 -138 3 -2
-356z m252 0 l0 -326 -110 3 -111 3 0 315 c0 173 1 318 1 323 0 4 50 7 110 7
l110 0 0 -325z"/>
<path d="M5697 1864 c-4 -4 -7 -164 -7 -356 l0 -348 143 0 142 0 -5 352 -5
353 -131 3 c-71 1 -133 -1 -137 -4z m248 -349 l0 -320 -110 0 -110 0 -3 323
-2 323 112 -3 113 -3 0 -320z"/>
<path d="M6020 1531 c0 -187 -3 -346 -6 -355 -5 -14 11 -16 142 -16 l149 0 -3
355 -2 355 -140 0 -140 0 0 -339z m255 -16 l0 -320 -115 0 -115 0 -3 323 -2
323 117 -3 118 -3 0 -320z"/>
<path d="M6350 1531 c0 -187 -3 -347 -6 -355 -6 -15 8 -16 135 -14 l141 3 0
340 c1 187 1 346 0 353 0 9 -34 12 -135 12 l-135 0 0 -339z m250 -17 l0 -325
-112 3 -113 3 -3 323 -2 322 115 0 115 0 0 -326z"/>
<path d="M3492 1468 c-20 -20 -12 -78 11 -78 7 0 7 4 -1 12 -7 7 -12 21 -12
33 0 12 5 26 12 33 7 7 10 12 7 12 -3 0 -10 -5 -17 -12z"/>
<path d="M3740 1456 c0 -9 5 -16 10 -16 6 0 10 4 10 9 0 6 -4 13 -10 16 -5 3
-10 -1 -10 -9z"/>
<path d="M3910 1439 c0 -5 5 -7 10 -4 6 3 10 8 10 11 0 2 -4 4 -10 4 -5 0 -10
-5 -10 -11z"/>
<path d="M4080 1439 c0 -5 5 -7 10 -4 6 3 10 8 10 11 0 2 -4 4 -10 4 -5 0 -10
-5 -10 -11z"/>
<path d="M3995 1431 c-3 -5 -1 -12 5 -16 5 -3 10 1 10 9 0 18 -6 21 -15 7z"/>
<path d="M4442 788 l-2 -358 1090 0 1090 0 0 298 0 297 -787 0 c-775 0 -788 0
-806 -20 -12 -14 -17 -16 -15 -5 3 13 -35 15 -279 18 l-282 2 -4 63 c-2 34 -4
-99 -5 -295z m2163 203 c3 -5 1 -12 -5 -16 -5 -3 -10 1 -10 9 0 18 6 21 15 7z
m-2148 -53 c-3 -7 -5 -2 -5 12 0 14 2 19 5 13 2 -7 2 -19 0 -25z m688 -34 c14
-15 25 -22 25 -15 0 14 43 14 58 -1 8 -8 15 -8 27 2 8 7 24 10 35 7 15 -4 20
0 20 14 0 10 7 19 15 19 8 0 15 -9 15 -21 0 -16 4 -19 20 -14 13 4 20 2 20 -6
0 -10 3 -10 12 -1 17 17 45 15 57 -5 10 -17 10 -17 11 0 0 12 8 17 30 17 31 0
41 -16 15 -26 -9 -4 -15 -19 -15 -35 0 -35 -29 -41 -31 -6 -2 22 -2 22 -6 0
-5 -26 -28 -36 -54 -23 -14 8 -19 7 -19 -1 0 -8 -7 -6 -19 5 -10 10 -21 13
-22 8 -2 -5 -18 -12 -36 -15 -23 -5 -37 -2 -49 11 -13 12 -19 13 -22 4 -5 -15
-54 -16 -70 0 -9 9 -15 9 -24 0 -7 -7 -27 -12 -45 -12 l-33 0 0 53 c0 30 3 57
7 60 15 15 56 5 78 -19z m479 11 c3 -9 18 -15 40 -15 19 0 38 -5 42 -11 4 -8
9 -8 17 0 6 6 26 11 45 11 27 0 33 3 28 16 -4 11 -1 14 11 12 9 -2 16 -6 15
-10 -1 -5 -2 -30 -2 -58 0 -29 -5 -50 -11 -50 -6 0 -17 -7 -25 -15 -22 -22
-65 -19 -71 4 -3 12 -11 17 -19 14 -10 -4 -14 3 -14 26 0 17 -4 31 -10 31 -5
0 -10 -13 -10 -30 0 -20 -5 -30 -15 -30 -11 0 -15 12 -15 45 0 43 -1 45 -27
44 -27 0 -27 -1 -5 -9 12 -5 22 -13 22 -18 0 -5 -10 -14 -22 -20 l-23 -11 23
0 c13 -1 22 -7 22 -17 0 -11 -8 -14 -32 -12 -31 3 -33 5 -36 47 -2 24 -1 50 2
57 7 19 62 18 70 -1z m282 -26 c4 -8 9 -8 17 0 15 15 52 14 66 -3 15 -17 3
-73 -17 -81 -8 -3 -25 2 -38 10 -13 9 -24 11 -24 5 0 -5 -7 -10 -15 -10 -10 0
-15 10 -15 32 0 17 -3 28 -7 24 -8 -8 -9 -13 -12 -41 0 -8 -8 -15 -16 -15 -11
0 -15 11 -15 38 0 21 3 42 7 45 10 11 61 8 69 -4z m-1449 -81 c-2 -13 -4 -3
-4 22 0 25 2 35 4 23 2 -13 2 -33 0 -45z m1085 -64 c588 1 1068 -2 1068 -6 0
-5 -486 -8 -1080 -8 -990 0 -1080 1 -1080 16 0 12 4 14 13 7 7 -7 396 -10
1079 -9z m-240 -138 c-2 -10 4 -16 18 -16 14 0 20 7 20 21 0 12 5 19 13 16 15
-5 14 -100 -2 -105 -6 -2 -11 6 -11 17 0 15 -6 21 -21 21 -16 0 -19 -4 -14
-20 5 -14 2 -20 -9 -20 -13 0 -16 12 -16 56 0 40 3 54 13 51 6 -2 11 -11 9
-21z m390 5 c14 -19 14 -19 26 0 14 22 53 23 60 0 3 -9 -2 -11 -17 -6 -27 8
-28 -11 -1 -25 37 -20 15 -76 -26 -68 -30 6 -28 28 3 28 l28 0 -25 19 -24 19
-12 -28 c-25 -60 -94 -46 -94 18 0 21 5 43 12 50 18 18 55 14 70 -7z m-133 -5
c9 -11 9 -20 2 -34 -8 -15 -7 -23 5 -33 10 -8 12 -15 5 -22 -15 -15 -38 9 -44
46 -7 52 8 72 32 43z m-113 -21 c15 -23 15 -27 0 -50 -18 -27 -35 -32 -54 -13
-18 18 -15 65 6 77 25 15 30 14 48 -14z m60 14 c3 -6 0 -15 -7 -20 -8 -5 -9
-9 -3 -9 19 0 26 -32 10 -48 -15 -15 -46 -10 -46 8 0 5 7 10 17 10 14 0 14 2
-2 20 -15 16 -15 22 -5 35 15 18 26 19 36 4z"/>
<path d="M5098 870 c-3 -20 0 -30 9 -30 7 0 13 11 13 24 0 36 -17 41 -22 6z"/>
<path d="M5190 855 c0 -8 5 -15 10 -15 6 0 10 7 10 15 0 8 -4 15 -10 15 -5 0
-10 -7 -10 -15z"/>
<path d="M5270 854 c0 -8 9 -14 20 -14 11 0 20 6 20 13 0 7 -9 13 -20 14 -11
1 -20 -4 -20 -13z"/>
<path d="M5365 861 c-3 -5 -1 -12 5 -16 5 -3 10 1 10 9 0 18 -6 21 -15 7z"/>
<path d="M5781 844 c0 -11 3 -14 6 -6 3 7 2 16 -1 19 -3 4 -6 -2 -5 -13z"/>
<path d="M5640 595 c-17 -20 -8 -50 15 -50 14 0 21 8 23 26 4 31 -20 45 -38
24z"/>
<path d="M5406 573 c-12 -12 -6 -33 9 -33 8 0 15 6 15 14 0 17 -14 28 -24 19z"/>
<path d="M890 595 l0 -145 1090 0 1090 0 0 145 0 145 -1090 0 -1090 0 0 -145z
m870 29 c11 -28 30 -24 30 7 0 12 5 19 13 17 17 -6 17 -110 0 -115 -8 -3 -13
5 -13 21 0 31 -27 36 -32 6 -6 -38 -23 -25 -26 19 -5 68 10 93 28 45z m384 10
c20 -20 20 -53 0 -82 -29 -42 -84 -17 -84 38 0 33 23 60 50 60 10 0 26 -7 34
-16z m84 -1 c2 -8 -5 -13 -20 -13 -23 0 -22 -1 6 -23 25 -20 27 -26 17 -45
-13 -25 -56 -30 -65 -7 -4 11 2 15 22 16 l27 0 -22 16 c-22 15 -31 52 -16 67
11 10 46 3 51 -11z m-198 -25 c0 -5 -4 -8 -10 -8 -5 0 -10 -9 -10 -19 0 -11 5
-23 10 -26 15 -9 12 -25 -5 -25 -8 0 -19 9 -25 19 -11 21 -14 74 -4 84 7 7 44
-14 44 -25z m-131 0 c11 -10 14 -10 18 0 6 14 39 16 48 2 3 -5 -2 -10 -12 -10
-17 -1 -17 -1 0 -14 35 -27 11 -67 -30 -51 -17 6 -17 7 -1 19 10 7 15 16 11
19 -12 12 -20 7 -31 -19 -23 -49 -82 -15 -68 39 7 30 41 37 65 15z"/>
<path d="M2090 590 c0 -23 4 -30 20 -30 16 0 20 7 20 30 0 23 -4 30 -20 30
-16 0 -20 -7 -20 -30z"/>
<path d="M1855 590 c-7 -12 2 -30 16 -30 12 0 12 27 0 35 -5 3 -12 1 -16 -5z"/>
<path d="M890 285 l0 -145 1093 2 1092 3 0 140 0 140 -1092 3 -1093 2 0 -145z
m940 45 c0 -5 -7 -10 -15 -10 -22 0 -18 -16 9 -33 22 -15 24 -15 29 3 6 24 39
26 58 4 10 -13 10 -17 -2 -24 -10 -7 -16 -3 -21 13 -7 24 -10 20 -11 -15 -1
-16 4 -23 16 -22 9 1 17 -2 17 -7 0 -16 -48 -10 -54 7 -5 14 -7 14 -22 0 -17
-18 -54 -22 -54 -6 0 6 9 10 20 10 27 0 25 14 -5 34 -21 14 -24 20 -15 36 11
20 50 28 50 10z m178 -42 l11 -23 7 23 c6 20 24 32 24 15 0 -16 -25 -73 -32
-73 -5 0 -16 16 -25 35 -13 27 -19 32 -30 24 -7 -6 -13 -22 -13 -36 0 -14 -4
-21 -10 -18 -11 7 -14 58 -3 68 16 16 60 6 71 -15z m111 8 c9 -10 7 -17 -5
-27 -10 -8 -19 -13 -21 -11 -1 1 -2 -1 -1 -5 1 -5 8 -7 15 -5 7 2 13 -2 13 -8
0 -6 -12 -10 -27 -8 -29 3 -41 32 -29 64 7 18 40 18 55 0z m59 0 c-10 -7 -18
-25 -18 -40 0 -16 -4 -25 -10 -21 -11 7 -14 58 -3 68 3 4 16 7 27 7 20 -1 20
-2 4 -14z"/>
<path d="M2085 290 c-3 -5 -1 -10 4 -10 6 0 11 5 11 10 0 6 -2 10 -4 10 -3 0
-8 -4 -11 -10z"/>
<path d="M4440 270 l0 -150 1090 0 1090 0 0 150 0 150 -1090 0 -1090 0 0 -150z
m940 40 c0 -5 -10 -10 -22 -10 -22 -1 -21 -2 7 -25 25 -20 28 -28 19 -42 -12
-20 -54 -30 -54 -14 0 6 9 11 20 11 26 0 25 8 -6 37 -21 19 -24 26 -14 38 14
17 50 20 50 5z m78 -42 c2 -13 -3 -18 -17 -18 -12 0 -21 -4 -21 -10 0 -5 9
-10 20 -10 11 0 20 -5 20 -11 0 -6 -12 -9 -27 -7 -29 3 -41 32 -29 64 8 21 50
14 54 -8z m89 2 c3 -11 9 -20 13 -20 5 0 12 9 15 20 3 11 11 20 16 20 12 0 12
-1 -6 -44 -19 -45 -30 -46 -45 0 -13 39 -33 41 -38 3 -6 -44 -22 -45 -22 -1 0
40 1 42 31 42 22 0 32 -5 36 -20z m121 -2 c2 -13 -3 -18 -17 -18 -12 0 -21 -4
-21 -10 0 -5 7 -10 15 -10 8 0 15 -4 15 -10 0 -18 -39 -10 -50 10 -15 28 4 62
33 58 12 -2 23 -11 25 -20z m54 10 c-7 -7 -12 -22 -12 -35 0 -13 -4 -23 -10
-23 -5 0 -10 16 -10 35 0 29 4 35 22 35 17 0 19 -3 10 -12z"/>
<path d="M5420 270 c0 -5 5 -10 10 -10 6 0 10 5 10 10 0 6 -4 10 -10 10 -5 0
-10 -4 -10 -10z"/>
<path d="M5630 270 c0 -5 5 -10 10 -10 6 0 10 5 10 10 0 6 -4 10 -10 10 -5 0
-10 -4 -10 -10z"/>
</g>
</svg>
