<?xml version="1.0" standalone="no"?>
<!DOCTYPE svg PUBLIC "-//W3C//DTD SVG 20010904//EN"
 "http://www.w3.org/TR/2001/REC-SVG-20010904/DTD/svg10.dtd">
<svg version="1.0" xmlns="http://www.w3.org/2000/svg"
 width="264.000000pt" height="198.000000pt" viewBox="0 0 264.000000 198.000000"
 preserveAspectRatio="xMidYMid meet">
<metadata>
Created by potrace 1.12, written by Peter Selinger 2001-2015
</metadata>
<g transform="translate(0.000000,198.000000) scale(0.100000,-0.100000)"
fill="#000000" stroke="none">
<path d="M101 1829 c-14 -41 -14 -41 8 -27 15 9 23 9 34 -1 14 -11 14 -8 5 23
-14 44 -33 46 -47 5z m29 1 c0 -5 -5 -10 -11 -10 -5 0 -7 5 -4 10 3 6 8 10 11
10 2 0 4 -4 4 -10z"/>
<path d="M230 1828 c0 -21 2 -38 4 -38 9 0 12 50 5 62 -6 8 -9 -1 -9 -24z"/>
<path d="M661 1823 c1 -33 2 -35 8 -13 7 25 7 25 13 3 7 -26 28 -31 28 -8 0 8
5 15 10 15 6 0 10 -6 10 -14 0 -7 9 -16 19 -19 14 -3 18 -1 14 9 -3 8 -9 11
-14 8 -5 -3 -9 9 -9 25 0 38 -17 40 -32 4 l-11 -28 -10 28 c-15 38 -27 34 -26
-10z"/>
<path d="M170 1817 c0 -14 5 -29 10 -32 7 -4 8 3 4 22 -9 38 -14 42 -14 10z"/>
<path d="M200 1815 c0 -14 5 -25 10 -25 6 0 10 11 10 25 0 14 -4 25 -10 25 -5
0 -10 -11 -10 -25z"/>
<path d="M267 1834 c-12 -12 -8 -42 6 -47 21 -8 39 8 35 29 -3 19 -29 30 -41
18z m31 -21 c-4 -22 -22 -20 -26 1 -2 10 3 16 13 16 10 0 15 -7 13 -17z"/>
<path d="M320 1815 c0 -14 5 -25 10 -25 6 0 9 3 9 8 -6 35 17 45 24 10 4 -20
4 -19 6 5 1 23 -3 27 -24 27 -20 0 -25 -5 -25 -25z"/>
<path d="M383 1824 c-3 -9 2 -23 13 -32 17 -16 17 -16 5 0 -7 9 -10 22 -6 28
11 17 25 11 25 -12 0 -15 3 -19 10 -12 15 15 1 44 -21 44 -11 0 -22 -7 -26
-16z"/>
<path d="M451 1813 c2 -23 2 -24 6 -5 2 12 9 22 14 22 5 0 9 -10 10 -22 l0
-23 9 23 c12 27 27 29 33 2 4 -17 4 -16 3 2 -1 19 -8 24 -38 26 -36 3 -38 2
-37 -25z"/>
<path d="M540 1816 c0 -14 5 -26 10 -26 6 0 10 9 10 19 0 11 -4 23 -10 26 -6
4 -10 -5 -10 -19z"/>
<path d="M577 1833 c-4 -3 -7 -14 -7 -24 0 -19 26 -33 35 -18 4 5 1 8 -6 7
-20 -5 -22 30 -2 35 14 4 14 5 2 6 -9 0 -19 -2 -22 -6z"/>
<path d="M763 1834 c9 -3 17 -14 17 -25 0 -10 5 -19 11 -19 6 0 9 10 7 23 -2
15 -10 23 -28 24 -14 1 -18 0 -7 -3z"/>
<path d="M811 1813 c2 -23 2 -24 6 -5 2 12 9 22 14 22 5 0 14 -10 19 -22 10
-23 10 -23 7 2 -1 17 -9 26 -24 28 -20 3 -23 -1 -22 -25z"/>
<path d="M891 1834 c11 -3 15 -12 12 -25 -3 -11 0 -19 7 -19 20 0 7 45 -15 47
-13 1 -15 0 -4 -3z"/>
<path d="M937 1833 c-10 -9 -8 -43 2 -43 5 0 8 7 7 16 0 9 5 19 12 21 9 4 12
-3 9 -24 -3 -19 -9 -28 -22 -26 -12 1 -14 -2 -7 -9 20 -20 42 0 42 37 0 27 -4
35 -18 35 -10 0 -22 -3 -25 -7z"/>
<path d="M1007 1834 c-24 -24 6 -62 34 -42 11 8 11 9 -3 4 -10 -3 -20 -1 -23
4 -4 6 3 10 15 10 13 0 20 5 18 13 -5 14 -31 21 -41 11z"/>
<path d="M1061 1813 c0 -25 1 -26 9 -8 12 27 12 35 0 35 -5 0 -10 -12 -9 -27z"/>
<path d="M870 1801 c0 -6 5 -13 10 -16 6 -3 10 1 10 9 0 9 -4 16 -10 16 -5 0
-10 -4 -10 -9z"/>
<path d="M15 1065 c0 -390 1 -552 2 -358 2 193 2 513 0 710 -1 197 -2 39 -2
-352z"/>
<path d="M353 1652 c-45 -37 -82 -70 -82 -74 -1 -5 474 -8 1054 -8 580 0 1055
2 1055 4 0 3 -39 37 -86 75 l-85 71 -887 0 -887 0 -82 -68z"/>
<path d="M170 1515 c9 -10 16 -12 20 -6 4 7 157 12 451 14 l444 2 -464 3
c-417 2 -462 0 -451 -13z"/>
<path d="M1560 1439 c0 -79 -2 -90 -16 -85 -9 3 -41 9 -72 12 -32 4 -63 11
-69 17 -10 7 -13 4 -13 -12 0 -20 -4 -22 -38 -25 -14 -1 -46 -76 -33 -76 4 0
18 11 31 24 16 18 30 24 49 21 14 -2 56 -9 94 -16 l67 -11 0 -100 0 -99 -242
1 c-134 1 -262 1 -286 0 -43 0 -44 0 -69 -60 -15 -33 -30 -60 -35 -60 -5 0 -7
-4 -4 -9 3 -5 -6 -35 -19 -66 -14 -32 -24 -59 -22 -61 2 -3 28 52 57 121 l53
125 333 0 c217 0 334 -4 337 -10 3 -6 4 -5 3 2 -2 8 -21 14 -49 16 l-47 3 0
215 0 214 445 0 c245 0 445 -2 445 -4 0 -2 -92 -72 -205 -156 -113 -83 -205
-154 -205 -157 0 -3 6 -1 13 4 6 6 102 77 212 158 110 81 204 151 210 156 5 5
-190 9 -458 9 l-467 0 0 -91z m-200 -113 c0 -3 -4 -8 -10 -11 -5 -3 -10 -1
-10 4 0 6 5 11 10 11 6 0 10 -2 10 -4z"/>
<path d="M225 1476 c17 -14 50 -40 75 -57 35 -23 38 -25 15 -5 -16 14 -50 40
-75 57 -35 23 -38 25 -15 5z"/>
<path d="M1385 1420 c3 -5 8 -10 11 -10 2 0 4 5 4 10 0 6 -5 10 -11 10 -5 0
-7 -4 -4 -10z"/>
<path d="M350 1387 c0 -2 26 -24 58 -48 31 -23 72 -54 90 -67 17 -13 32 -22
32 -19 0 2 -26 24 -57 48 -32 23 -73 54 -90 67 -18 13 -33 22 -33 19z"/>
<path d="M1175 1368 c-33 -6 -68 -11 -77 -11 -14 -1 -18 -10 -18 -39 0 -35 1
-37 24 -28 13 5 52 12 85 16 l61 7 0 33 c0 19 -3 33 -7 33 -5 -1 -35 -6 -68
-11z"/>
<path d="M660 1333 c1 -31 3 -35 11 -20 5 9 17 17 24 17 8 0 15 9 15 20 0 15
-7 20 -25 20 -22 0 -25 -4 -25 -37z m40 17 c0 -5 -7 -10 -15 -10 -8 0 -15 5
-15 10 0 6 7 10 15 10 8 0 15 -4 15 -10z"/>
<path d="M733 1335 c0 -22 2 -30 4 -17 2 12 2 30 0 40 -3 9 -5 -1 -4 -23z"/>
<path d="M1731 1352 c-17 -31 -14 -39 14 -39 28 0 32 14 11 42 -13 18 -14 18
-25 -3z"/>
<path d="M1903 1335 c0 -22 2 -30 4 -17 2 12 2 30 0 40 -3 9 -5 -1 -4 -23z"/>
<path d="M760 1340 c10 -6 11 -10 3 -10 -7 0 -13 -7 -13 -15 0 -8 9 -15 20
-15 15 0 20 7 20 25 0 19 -5 25 -22 25 -19 0 -20 -2 -8 -10z"/>
<path d="M811 1323 c2 -24 2 -25 6 -5 2 12 8 22 13 22 5 0 11 -10 13 -22 4
-20 4 -19 6 5 1 21 -4 27 -19 27 -15 0 -20 -6 -19 -27z"/>
<path d="M1791 1323 c2 -24 2 -25 6 -5 2 12 8 22 13 22 5 0 11 -10 13 -22 4
-20 4 -19 6 5 1 21 -4 27 -19 27 -15 0 -20 -6 -19 -27z"/>
<path d="M1855 1340 c17 -7 17 -9 3 -9 -25 -1 -23 -31 2 -31 15 0 20 7 20 25
0 19 -5 25 -22 24 -22 0 -22 -1 -3 -9z"/>
<path d="M1928 1330 c5 -14 7 -31 5 -37 -9 -25 7 -13 22 17 18 36 19 46 2 31
-10 -8 -17 -7 -26 2 -10 9 -10 7 -3 -13z"/>
<path d="M1984 1325 c-1 -16 3 -25 13 -25 8 0 11 5 8 10 -4 6 -1 17 5 25 10
12 9 15 -6 15 -13 0 -19 -8 -20 -25z"/>
<path d="M2032 1328 c2 -12 10 -23 18 -25 9 -3 11 -1 5 4 -13 11 -17 33 -6 33
5 0 12 -6 14 -12 3 -8 6 -6 6 5 1 11 -6 17 -20 17 -15 0 -20 -5 -17 -22z"/>
<path d="M540 1247 c0 -3 32 -28 70 -57 39 -29 70 -55 70 -60 0 -4 -7 -13 -15
-20 -21 -17 -19 -30 5 -30 15 0 20 -7 20 -25 l0 -25 28 31 27 30 45 -33 c25
-19 62 -47 83 -62 20 -16 37 -26 37 -23 0 3 -69 56 -152 118 -84 62 -168 123
-185 137 -18 13 -33 22 -33 19z"/>
<path d="M1968 1149 l-68 -51 23 -27 c19 -24 22 -25 25 -9 2 12 12 18 28 18
24 0 24 0 7 26 -17 27 -17 27 22 60 59 49 40 41 -37 -17z"/>
<path d="M162 849 l3 -344 187 -3 187 -2 10 -33 c6 -17 24 -52 41 -76 l29 -45
-52 -30 c-29 -17 -64 -37 -79 -45 -16 -8 -27 -16 -25 -18 4 -4 320 -63 322
-60 1 1 19 56 39 122 21 66 39 126 41 133 7 20 -15 14 -96 -28 l-78 -40 -36
56 c-20 31 -34 58 -32 60 2 2 320 3 706 2 l702 -3 -51 -77 c-27 -42 -80 -104
-116 -137 l-67 -61 19 -23 c10 -12 20 -23 20 -25 4 -6 59 42 137 120 58 57 86
94 108 143 l29 65 185 0 c140 0 187 3 190 13 3 6 4 162 3 345 l-3 333 -185
-136 c-101 -74 -187 -135 -191 -135 -4 0 -12 14 -19 31 -10 22 -10 33 -1 42
17 17 13 29 -6 19 -10 -5 -24 -7 -31 -5 -7 3 -15 -7 -18 -26 -4 -17 -10 -34
-15 -36 -4 -3 -1 -18 7 -33 7 -15 14 -32 14 -38 0 -7 -38 -39 -85 -73 -47 -34
-85 -65 -85 -68 0 -3 6 -1 13 4 50 41 588 433 592 433 3 0 4 -147 3 -327 l-3
-328 -284 0 -285 0 -38 89 c-37 86 -38 89 -21 110 10 11 11 15 3 9 -8 -7 -17
-13 -21 -13 -4 0 -26 45 -50 100 -23 55 -44 99 -46 97 -2 -2 33 -88 77 -191
44 -103 80 -191 80 -197 0 -5 -216 -9 -566 -9 l-566 0 5 22 c2 13 7 32 11 43
3 11 -3 1 -14 -22 l-21 -43 -285 0 -284 0 0 336 c1 185 -2 339 -5 342 -3 3 -4
-149 -3 -339z m1890 129 c-7 -7 -12 -8 -12 -2 0 14 12 26 19 19 2 -3 -1 -11
-7 -17z"/>
<path d="M198 1159 c7 -8 151 -116 320 -240 l307 -227 28 61 c15 33 26 62 23
64 -2 2 -14 -21 -27 -51 -12 -31 -25 -56 -28 -56 -18 1 -211 154 -211 168 0
20 27 65 64 106 31 34 32 40 9 28 -10 -5 -23 -7 -30 -5 -7 3 -16 -10 -21 -29
-7 -29 -13 -33 -45 -36 -20 -2 -37 -7 -37 -13 0 -20 -24 -6 -133 74 -181 134
-233 171 -219 156z m462 -173 c0 -3 -4 -8 -10 -11 -5 -3 -10 -1 -10 4 0 6 5
11 10 11 6 0 10 -2 10 -4z"/>
<path d="M1825 1044 c-33 -25 -64 -50 -70 -56 -12 -14 69 43 110 77 50 41 24
27 -40 -21z"/>
<path d="M2085 1080 c3 -5 8 -10 11 -10 2 0 4 5 4 10 0 6 -5 10 -11 10 -5 0
-7 -4 -4 -10z"/>
<path d="M1670 1045 c0 -5 5 -17 10 -25 5 -8 10 -10 10 -5 0 6 -5 17 -10 25
-5 8 -10 11 -10 5z"/>
<path d="M1690 994 c1 -5 10 -25 21 -44 11 -19 18 -27 14 -16 -3 10 0 26 7 34
11 13 11 14 -1 7 -9 -5 -19 -2 -28 10 -7 11 -13 15 -13 9z"/>
<path d="M1070 800 c0 -30 14 -41 23 -17 3 8 10 6 21 -8 8 -11 16 -15 16 -9 0
5 -5 15 -12 22 -8 8 -8 15 2 27 15 18 0 21 -18 3 -9 -9 -12 -9 -12 0 0 7 -4
12 -10 12 -5 0 -10 -13 -10 -30z"/>
<path d="M1330 800 c0 -16 5 -30 10 -30 6 0 10 14 10 30 0 17 -4 30 -10 30 -5
0 -10 -13 -10 -30z"/>
<path d="M1424 816 c-13 -10 -23 -11 -31 -4 -16 13 -33 2 -33 -22 0 -24 18
-36 33 -21 8 8 6 11 -6 11 -9 0 -17 4 -17 10 0 13 32 0 46 -19 18 -23 44 -6
44 29 0 33 -7 37 -36 16z m16 -26 c0 -5 -4 -10 -10 -10 -5 0 -10 5 -10 10 0 6
5 10 10 10 6 0 10 -4 10 -10z"/>
<path d="M1147 814 c-10 -11 -9 -44 2 -44 5 0 12 8 14 18 4 16 5 16 6 0 0 -10
6 -18 12 -18 16 0 6 44 -11 48 -9 1 -19 0 -23 -4z"/>
<path d="M1206 813 c-9 -9 -7 -41 3 -47 15 -10 41 5 42 23 0 10 4 7 10 -9 8
-20 12 -22 20 -10 7 12 11 13 18 2 6 -11 10 -10 15 3 10 26 8 31 -14 32 -11 1
-20 -4 -20 -10 0 -8 -2 -9 -8 -1 -9 13 -57 26 -66 17z m24 -23 c0 -5 -4 -10
-10 -10 -5 0 -10 5 -10 10 0 6 5 10 10 10 6 0 10 -4 10 -10z"/>
<path d="M1477 807 c-3 -7 -3 -26 0 -41 7 -36 37 -31 41 8 4 37 -29 63 -41 33z
m23 -17 c0 -5 -4 -10 -10 -10 -5 0 -10 5 -10 10 0 6 5 10 10 10 6 0 10 -4 10
-10z"/>
<path d="M1534 805 c-4 -8 -4 -22 0 -30 6 -17 36 -21 36 -4 0 5 -4 7 -10 4 -5
-3 -10 1 -10 9 0 10 6 13 18 9 15 -6 15 -5 3 10 -17 21 -30 22 -37 2z"/>
<path d="M310 695 c0 -32 3 -35 28 -34 16 1 20 3 10 6 -10 2 -18 8 -18 13 0 5
8 11 18 13 16 4 16 5 0 6 -10 0 -18 5 -18 10 0 5 8 12 18 14 10 3 6 5 -10 6
-25 1 -28 -2 -28 -34z"/>
<path d="M1991 695 c0 -31 2 -36 9 -20 l9 20 1 -20 c1 -19 1 -19 14 -2 14 18
14 18 19 0 3 -10 5 0 6 22 0 37 -1 39 -14 21 -15 -20 -15 -20 -30 0 -13 18
-14 16 -14 -21z"/>
<path d="M598 715 c-7 -7 3 -55 11 -55 8 0 7 47 -1 55 -2 3 -7 3 -10 0z"/>
<path d="M2198 713 c-11 -3 -18 -14 -18 -29 0 -30 8 -31 20 -1 l9 22 0 -22 c1
-34 16 -28 17 7 1 17 -2 29 -5 29 -3 -1 -14 -3 -23 -6z"/>
<path d="M383 685 c0 -12 6 -21 16 -22 10 -1 16 7 16 22 0 15 -6 23 -16 22
-10 -1 -16 -10 -16 -22z"/>
<path d="M434 695 c-8 -19 3 -35 24 -34 14 0 13 2 -3 9 -17 7 -17 9 -2 9 21 1
23 31 2 31 -9 0 -18 -7 -21 -15z"/>
<path d="M484 695 c-8 -19 3 -35 24 -35 13 0 13 2 -3 14 -18 13 -18 13 1 24
17 10 18 11 1 12 -10 0 -20 -7 -23 -15z"/>
<path d="M541 688 c-1 -22 4 -28 19 -28 15 0 20 6 19 28 -2 23 -2 24 -6 5 -2
-13 -8 -23 -13 -23 -5 0 -11 10 -13 23 -4 19 -4 18 -6 -5z"/>
<path d="M630 686 c0 -20 5 -26 23 -25 21 0 21 1 2 9 -18 8 -18 9 -2 9 23 1
17 25 -6 29 -12 3 -17 -4 -17 -22z"/>
<path d="M2068 698 c-8 -21 2 -38 23 -38 14 0 19 7 19 25 0 18 -5 25 -19 25
-10 0 -21 -6 -23 -12z m32 -13 c0 -8 -4 -15 -10 -15 -5 0 -10 7 -10 15 0 8 5
15 10 15 6 0 10 -7 10 -15z"/>
<path d="M2131 683 l1 -28 8 25 7 25 11 -25 11 -25 0 28 c1 21 -4 27 -19 27
-15 0 -20 -6 -19 -27z"/>
<path d="M2244 695 c-4 -9 -2 -21 4 -27 15 -15 44 -1 40 19 -4 23 -36 29 -44
8z m28 -10 c0 -5 -5 -11 -11 -13 -6 -2 -11 4 -11 13 0 9 5 15 11 13 6 -2 11
-8 11 -13z"/>
<path d="M2301 683 c1 -22 2 -23 6 -8 3 11 10 23 17 27 7 5 5 8 -6 8 -13 0
-18 -7 -17 -27z"/>
<path d="M797 645 c-24 -50 -20 -58 4 -12 11 22 19 41 17 43 -3 2 -12 -12 -21
-31z"/>
<path d="M940 90 c0 -19 3 -21 12 -12 9 9 9 15 0 24 -9 9 -12 7 -12 -12z"/>
<path d="M991 94 c0 -11 3 -14 6 -6 3 7 2 16 -1 19 -3 4 -6 -2 -5 -13z"/>
<path d="M1370 75 c0 -30 3 -35 23 -34 16 1 18 2 5 6 -10 2 -18 8 -18 13 0 5
8 11 18 13 16 4 16 5 0 6 -26 2 -22 19 5 24 19 4 18 4 -5 6 -26 1 -28 -2 -28
-34z"/>
<path d="M1304 85 c-16 -13 -16 -14 -1 -9 12 4 17 1 17 -11 0 -11 -5 -15 -16
-11 -8 3 -12 2 -9 -4 14 -22 35 -10 35 20 0 35 0 35 -26 15z"/>
<path d="M1040 83 c5 -2 8 -8 6 -12 -3 -4 0 -13 5 -21 8 -12 9 -9 7 9 -2 14
-9 26 -16 27 -7 1 -8 0 -2 -3z"/>
<path d="M1076 82 c-2 -4 4 -8 15 -8 10 0 19 4 19 8 0 10 -27 10 -34 0z"/>
<path d="M1147 69 c4 -15 3 -20 -5 -15 -7 4 -12 2 -12 -4 0 -6 8 -10 18 -8 19
4 24 39 5 45 -7 3 -9 -4 -6 -18z"/>
<path d="M1185 80 c-3 -6 1 -7 9 -4 11 4 16 0 16 -11 0 -12 -5 -15 -17 -11
-17 6 -17 5 0 -8 11 -9 14 -16 7 -19 -6 -3 -5 -4 2 -3 19 4 23 66 4 66 -8 0
-18 -4 -21 -10z"/>
<path d="M1236 75 c-7 -20 0 -35 17 -35 7 0 6 4 -3 10 -12 8 -10 10 8 10 15 0
22 5 20 13 -7 19 -35 20 -42 2z"/>
<path d="M1456 73 c-7 -18 1 -33 17 -33 9 0 9 2 0 8 -8 5 -9 13 -3 22 8 12 10
12 10 1 0 -9 6 -11 18 -6 37 16 72 15 72 -1 0 -8 5 -12 10 -9 6 3 10 1 10 -4
0 -6 8 -11 18 -10 10 0 12 3 5 6 -16 6 -17 33 -2 33 5 0 7 -4 4 -10 -3 -5 -1
-10 4 -10 6 0 11 4 11 9 0 16 -20 23 -34 12 -7 -6 -16 -7 -20 -3 -4 4 -32 8
-61 8 -39 1 -55 -2 -59 -13z"/>
<path d="M1644 75 c-4 -9 -4 -19 0 -22 3 -4 6 1 6 10 0 21 17 22 23 2 4 -12 5
-11 3 1 -2 23 -24 30 -32 9z"/>
<path d="M965 50 c3 -5 8 -10 11 -10 2 0 4 5 4 10 0 6 -5 10 -11 10 -5 0 -7
-4 -4 -10z"/>
<path d="M1020 50 c0 -5 5 -10 11 -10 5 0 7 5 4 10 -3 6 -8 10 -11 10 -2 0 -4
-4 -4 -10z"/>
</g>
</svg>
